<svg width="29" height="30" viewBox="0 0 29 30" fill="none" xmlns="http://www.w3.org/2000/svg">
  <rect y="0.539062" width="29" height="29" rx="14.5" fill="#F7931A"/>
  <path fill-rule="evenodd" clip-rule="evenodd" d="M13.5261 15.9702L15.5637 15.306C16.5147 14.996 17.2873 15.4454 17.5599 16.3584C17.7739 17.0149 17.6714 17.6995 17.2019 18.1031C17.0277 18.26 16.7407 18.3786 16.4917 18.4598L14.5446 19.0945L13.5261 15.9702ZM14.7186 11.0231C15.1999 11.1167 15.5513 11.5031 15.721 12.0237C15.9867 12.8388 15.6958 13.5598 14.8808 13.8255L13.0242 14.4307L12.1312 11.6912L13.7613 11.1598C14.1235 11.0418 14.4553 10.9837 14.7186 11.0231ZM17.1821 19.9629C17.5265 21.0195 17.6987 21.5477 17.6987 21.5477C17.6987 21.5477 17.344 21.6634 16.6346 21.8946L16.118 20.3098L15.0086 20.6714C15.3531 21.728 15.5253 22.2563 15.5253 22.2563C15.5253 22.2563 15.1706 22.3719 14.4612 22.6032L13.9446 21.0183C12.5258 21.4808 11.8164 21.7121 11.8164 21.7121C11.8164 21.7121 11.6589 21.2291 11.344 20.2632L12.0006 20.0492C12.3402 19.9385 12.5007 19.5855 12.3973 19.2686L10.3086 12.8615C10.1979 12.5219 9.8451 12.3614 9.52816 12.4648C9.09043 12.6075 8.87157 12.6788 8.87157 12.6788C8.87157 12.6788 8.71411 12.1958 8.3992 11.2298L10.5274 10.536C10.183 9.47951 10.0108 8.95124 10.0108 8.95124C10.0108 8.95124 10.3655 8.83561 11.0748 8.60436L11.5915 10.1892L12.7008 9.82752C12.3564 8.77099 12.1842 8.24272 12.1842 8.24272C12.1842 8.24272 12.5389 8.12709 13.2483 7.89582L13.7723 9.50323C14.323 9.34877 14.7753 9.27648 15.2646 9.31737C16.3335 9.36959 17.2779 10.0385 17.6617 11.2158C17.9865 12.212 17.7993 13.1746 17.1019 13.8778C18.4046 13.879 19.2575 14.728 19.6191 15.8374C20.0615 17.271 19.45 18.6225 18.4361 19.3538C18.0277 19.6372 17.6349 19.8153 17.1821 19.9629Z" fill="white"/>
</svg>