<svg width="29" height="29" viewBox="0 0 64 64" fill="none" xmlns="http://www.w3.org/2000/svg">
  <path d="M63.0432 39.741C58.7694 56.884 41.4063 67.3169 24.2612 63.042C7.12337 58.7681 -3.30954 41.4039 0.966166 24.2623C5.23812 7.11741 22.6012 -3.31628 39.741 0.957549C56.8848 5.23138 67.3171 22.5975 63.0428 39.7413L63.0431 39.741H63.0432Z" fill="#F7931A"/>
  <path fillRule="evenodd" clip-rule="evenodd" d="M46.1147 27.4409C46.7516 23.1824 43.5094 20.8933 39.0761 19.3662L40.5143 13.5977L37.0028 12.7227L35.6028 18.3394C34.6796 18.1091 33.7316 17.8922 32.7894 17.6771L34.1996 12.0234L30.6903 11.1484L29.2513 16.9151C28.4874 16.7411 27.7371 16.5692 27.0091 16.3881L27.0132 16.37L22.1708 15.1607L21.2367 18.9112C21.2367 18.9112 23.8419 19.5084 23.787 19.5452C25.2089 19.9001 25.4661 20.8414 25.4234 21.5874L23.7851 28.1591C23.883 28.184 24.01 28.22 24.1502 28.2763L24.0482 28.2508C23.9616 28.2292 23.8715 28.2066 23.779 28.1845L21.4827 37.3905C21.3089 37.8225 20.8679 38.4708 19.8737 38.2246C19.9089 38.2756 17.3215 37.5877 17.3215 37.5877L15.5781 41.6072L20.1477 42.7464C20.6481 42.8719 21.1426 43.0008 21.6321 43.1284C21.9742 43.2176 22.3138 43.3061 22.6513 43.3924L21.1982 49.227L24.7056 50.102L26.1446 44.3293C27.1028 44.5894 28.0327 44.8293 28.943 45.0555L27.5088 50.801L31.0205 51.676L32.4734 45.8523C38.4612 46.9855 42.9636 46.5286 44.8587 41.1126C46.3857 36.7522 44.7826 34.237 41.6325 32.5969C43.9269 32.0678 45.6551 30.5587 46.1159 27.4414L46.1148 27.4406L46.1147 27.4409ZM38.0924 38.6907C37.0967 42.6913 30.8347 41.0374 27.9696 40.2806C27.7118 40.2126 27.4816 40.1518 27.2852 40.103L29.2134 32.373C29.4528 32.4328 29.7454 32.4985 30.0768 32.5729L30.0769 32.5729C33.0405 33.2379 39.1124 34.6006 38.0925 38.6907H38.0924ZM30.6695 28.9856C33.0581 29.623 38.269 31.0137 39.1765 27.3777H39.1768C40.1035 23.6589 35.0394 22.5377 32.5661 21.9901C32.2879 21.9285 32.0424 21.8742 31.842 21.8242L30.0938 28.8348C30.2588 28.876 30.4525 28.9276 30.6695 28.9856Z" fill="white"/>
</svg>
