<svg width="64" height="64" viewBox="0 0 64 64" fill="none" xmlns="http://www.w3.org/2000/svg">
  <path
    d="M63.0354 39.741C58.7616 56.884 41.3985 67.3169 24.2534 63.042C7.11555 58.7681 -3.31736 41.4039 0.958353 24.2623C5.23031 7.11741 22.5934 -3.31628 39.7332 0.957549C56.877 5.23138 67.3093 22.5975 63.035 39.7413L63.0353 39.741H63.0354Z"
    fill="#F3BA2F"/>
  <path fillRule="evenodd" clip-rule="evenodd"
        d="M32.0003 20.3094L23.7141 28.5956L23.7143 28.5953L18.8931 23.7739L32.0003 10.6667L45.1118 23.7779L40.2905 28.5992L32.0003 20.3094ZM15.4885 27.1779L10.667 32.0001L15.4882 36.8206L20.3097 31.9991L15.4885 27.1779ZM23.7141 35.4051L32.0003 43.6907L40.2903 35.4011L45.1142 40.2199L45.1118 40.2225L32.0003 53.3334L18.8931 40.2262L18.8863 40.2194L23.7141 35.4051ZM48.5125 27.1806L43.691 32.0021L48.5123 36.8233L53.3337 32.0018L48.5125 27.1806Z"
        fill="white"/>
  <path
    d="M36.8903 31.9976H36.8924L32.0004 27.1052L28.3844 30.7201L27.969 31.1357L27.1123 31.9926L27.1055 31.9993L27.1123 32.0063L32.0004 36.895L36.8927 32.0027L36.8951 31.9999L36.8906 31.9976"
    fill="white"/>
</svg>
