<svg width="64" height="64" viewBox="0 0 64 64" fill="none" xmlns="http://www.w3.org/2000/svg">
  <circle cx="32" cy="32" r="32" fill="#EDF0F4"/>
  <path d="M41.6001 25.5732C40.9178 25.1807 40.0405 25.1807 39.2607 25.5732L33.802 28.8112L30.0979 30.8717L24.7367 34.1097C24.0544 34.5022 23.1771 34.5022 22.3973 34.1097L18.2058 31.5586C17.5235 31.1661 17.0361 30.3811 17.0361 29.4981V24.592C17.0361 23.8071 17.426 23.0221 18.2058 22.5315L22.3973 20.0785C23.0796 19.686 23.9569 19.686 24.7367 20.0785L28.9282 22.6296C29.6105 23.0221 30.0979 23.8071 30.0979 24.6901V27.9281L33.802 25.7695V22.4334C33.802 21.6484 33.4121 20.8634 32.6323 20.3728L24.8342 15.7612C24.1519 15.3687 23.2746 15.3687 22.4948 15.7612L14.5017 20.471C13.7219 20.8634 13.332 21.6484 13.332 22.4334V31.6567C13.332 32.4417 13.7219 33.2266 14.5017 33.7172L22.3973 38.3289C23.0796 38.7214 23.9569 38.7214 24.7367 38.3289L30.0979 35.1891L33.802 33.0304L39.1632 29.8905C39.8455 29.4981 40.7228 29.4981 41.5026 29.8905L45.6941 32.3436C46.3764 32.736 46.8638 33.521 46.8638 34.4041V39.3101C46.8638 40.0951 46.4739 40.88 45.6941 41.3707L41.6001 43.8237C40.9178 44.2162 40.0405 44.2162 39.2607 43.8237L35.0692 41.3707C34.3869 40.9782 33.8995 40.1932 33.8995 39.3101V36.1703L30.1954 38.3289V41.5669C30.1954 42.3519 30.5853 43.1368 31.3651 43.6274L39.2607 48.2391C39.943 48.6316 40.8203 48.6316 41.6001 48.2391L49.4956 43.6274C50.178 43.2349 50.6654 42.45 50.6654 41.5669V32.2454C50.6654 31.4605 50.2755 30.6755 49.4956 30.1849L41.6001 25.5732Z" fill="#8247E5"/>
</svg>
