<svg width="64" height="64" viewBox="0 0 64 64" fill="none" xmlns="http://www.w3.org/2000/svg">
  <circle cx="32" cy="32" r="32" fill="black"/>
  <path d="M19.8373 39.5811C20.0591 39.3593 20.364 39.23 20.6874 39.23H50.0141C50.55 39.23 50.8179 39.8768 50.4391 40.2556L44.6458 46.0488C44.4241 46.2706 44.1192 46.4 43.7958 46.4H14.4691C13.9332 46.4 13.6653 45.7532 14.0441 45.3744L19.8373 39.5811Z" fill="url(#paint0_linear_2297_6906)"/>
  <path d="M19.8373 17.9512C20.0683 17.7295 20.3732 17.6001 20.6874 17.6001H50.0141C50.55 17.6001 50.8179 18.2469 50.4391 18.6257L44.6458 24.419C44.4241 24.6407 44.1192 24.7701 43.7958 24.7701H14.4691C13.9332 24.7701 13.6653 24.1233 14.0441 23.7445L19.8373 17.9512Z" fill="url(#paint1_linear_2297_6906)"/>
  <path d="M44.6458 28.6968C44.4241 28.4751 44.1192 28.3457 43.7958 28.3457H14.4691C13.9332 28.3457 13.6653 28.9925 14.0441 29.3713L19.8373 35.1646C20.0591 35.3863 20.364 35.5157 20.6874 35.5157H50.0141C50.55 35.5157 50.8179 34.8689 50.4391 34.4901L44.6458 28.6968Z" fill="url(#paint2_linear_2297_6906)"/>
  <defs>
    <linearGradient id="paint0_linear_2297_6906" x1="-52.4167" y1="12.1593" x2="-53.197" y2="51.4229" gradientUnits="userSpaceOnUse">
      <stop stopColor="#00FFA3"/>
      <stop offset="1" stopColor="#DC1FFF"/>
    </linearGradient>
    <linearGradient id="paint1_linear_2297_6906" x1="-61.2914" y1="7.5261" x2="-62.0716" y2="46.7897" gradientUnits="userSpaceOnUse">
      <stop stopColor="#00FFA3"/>
      <stop offset="1" stopColor="#DC1FFF"/>
    </linearGradient>
    <linearGradient id="paint2_linear_2297_6906" x1="-56.8823" y1="9.8279" x2="-57.6626" y2="49.0915" gradientUnits="userSpaceOnUse">
      <stop stopColor="#00FFA3"/>
      <stop offset="1" stopColor="#DC1FFF"/>
    </linearGradient>
  </defs>
</svg>
