<svg width="24" height="24" viewBox="0 0 24 24" fill="none" xmlns="http://www.w3.org/2000/svg">
<path d="M23.6383 14.9029C22.0356 21.3315 15.5244 25.2438 9.09503 23.6407C2.66833 22.0381 -1.24401 15.5265 0.359382 9.09837C1.96137 2.66903 8.47253 -1.24361 14.8999 0.359081C21.3289 1.96177 25.241 8.47405 23.6381 14.903L23.6382 14.9029H23.6383Z" fill="#50AF95"/>
<path fill-rule="evenodd" clip-rule="evenodd" d="M13.5181 13.3604C13.4332 13.3667 12.9948 13.3929 12.0169 13.3929C11.2391 13.3929 10.6869 13.3695 10.4931 13.3604C7.48728 13.2281 5.24368 12.7049 5.24368 12.0784C5.24368 11.4519 7.48728 10.9294 10.4931 10.795V12.8392C10.6897 12.8534 11.2525 12.8866 12.0303 12.8866C12.9637 12.8866 13.4311 12.8477 13.5152 12.8399V10.7964C16.5147 10.9301 18.7534 11.4533 18.7534 12.0784C18.7534 12.7035 16.5154 13.2267 13.5152 13.3596L13.5181 13.3604ZM13.5181 10.585V8.75578H17.704V5.96631H6.30715V8.75578H10.4924V10.5843C7.0906 10.7406 4.53235 11.4144 4.53235 12.2219C4.53235 13.0294 7.0906 13.7026 10.4924 13.8596V19.7213H13.5173V13.8574C16.9114 13.7012 19.4654 13.028 19.4654 12.2212C19.4654 11.4144 16.9135 10.7413 13.5173 10.5843L13.5181 10.585Z" fill="white"/>
</svg>
