<svg width="29" height="30" viewBox="0 0 29 30" fill="none" xmlns="http://www.w3.org/2000/svg">
  <path d="M28.5629 18.5076C26.6263 26.2756 18.7587 31.003 10.9898 29.0659C3.22424 27.1293 -1.50318 19.2612 0.434254 11.4939C2.36998 3.72508 10.2376 -1.00269 18.0041 0.93389C25.7724 2.87047 30.4995 10.7395 28.5627 18.5078L28.5629 18.5076H28.5629Z" fill="#23292F"/>
  <path d="M21.6292 6.5415H24.5553L18.4659 12.5708C16.2607 14.7531 12.6853 14.7531 10.4785 12.5708L4.38672 6.5415H7.31517L11.9415 11.1216C13.3441 12.5039 15.5967 12.5039 16.9993 11.1216L21.6292 6.5415Z" fill="white"/>
  <path d="M7.27766 23.3072H4.34961L10.4786 17.2407C12.6838 15.0584 16.2591 15.0584 18.466 17.2407L24.5949 23.3072H21.6688L17.0029 18.6899C15.6003 17.3076 13.3477 17.3076 11.9451 18.6899L7.27766 23.3072Z" fill="white"/>
</svg>
