<svg width="13" height="22" viewBox="0 0 13 22" fill="none" xmlns="http://www.w3.org/2000/svg">
<path d="M0.68272 18.4748C0.0758552 19.2017 0.175285 20.2817 0.902152 20.8886C1.62902 21.4954 2.71075 21.396 3.3159 20.6691L11.8874 12.0976C11.956 12.017 11.9886 11.921 12.04 11.8319C12.0812 11.7616 12.1292 11.6999 12.16 11.6227C12.2389 11.4222 12.2852 11.213 12.2852 11.0004C12.2852 10.7879 12.2389 10.5787 12.16 10.3781C12.1292 10.301 12.0812 10.2393 12.04 10.169C11.9886 10.0799 11.956 9.98385 11.8874 9.90328L3.3159 1.33174C2.71075 0.603161 1.62902 0.505446 0.902151 1.11231C0.175284 1.71746 0.0758544 2.79748 0.682719 3.52606L6.9108 9.28613L8.62495 11.0003L6.90664 12.7186L0.68272 18.4748Z" fill="white"/>
</svg>
