<svg width="24" height="24" viewBox="0 0 24 24" fill="none" xmlns="http://www.w3.org/2000/svg">
<rect width="24" height="24" rx="4" fill="#E42222" fill-opacity="0.16"/>
<path fill-rule="evenodd" clip-rule="evenodd" d="M13.1783 12.0001L16.7556 8.42268C17.0815 8.09685 17.0815 7.5702 16.7556 7.24437C16.4298 6.91854 15.9032 6.91854 15.5774 7.24437L12 10.8218L8.42265 7.24437C8.09683 6.91854 7.57018 6.91854 7.24436 7.24437C6.91855 7.5702 6.91855 8.09685 7.24436 8.42268L10.8217 12.0001L7.24436 15.5775C6.91855 15.9034 6.91855 16.43 7.24436 16.7558C7.40686 16.9183 7.62018 17 7.83351 17C8.04683 17 8.26016 16.9183 8.42265 16.7558L12 13.1784L15.5774 16.7558C15.7398 16.9183 15.9532 17 16.1665 17C16.3798 17 16.5931 16.9183 16.7556 16.7558C17.0815 16.43 17.0815 15.9034 16.7556 15.5775L13.1783 12.0001Z" fill="#E42222"/>
</svg>
