<svg width="15" height="16" viewBox="0 0 15 16" fill="none" xmlns="http://www.w3.org/2000/svg">
  <path
    d="M4.50439 6.08215C4.20153 5.82929 3.75152 5.87072 3.49866 6.17358C3.2458 6.47645 3.28723 6.92717 3.59009 7.17931L7.16156 10.7508C7.19514 10.7794 7.23514 10.7929 7.27228 10.8144C7.30157 10.8315 7.32728 10.8515 7.35942 10.8644C7.443 10.8972 7.53014 10.9165 7.61871 10.9165C7.70729 10.9165 7.79443 10.8972 7.878 10.8644C7.91015 10.8515 7.93586 10.8315 7.96515 10.8144C8.00229 10.7929 8.04229 10.7794 8.07586 10.7508L11.6473 7.17931C11.9509 6.92717 11.9916 6.47645 11.7388 6.17358C11.4866 5.87072 11.0366 5.82929 10.733 6.08215L8.33301 8.67719L7.61878 9.39142L6.90282 8.67546L4.50439 6.08215Z"
    fill="white" />
</svg>
