<svg xmlns="http://www.w3.org/2000/svg" width="20" height="21" viewBox="0 0 20 21" fill="none">
  <path fillRule="evenodd" clip-rule="evenodd" d="M9.99984 13C8.6215 13 7.49984 11.8783 7.49984 10.5C7.49984 9.12162 8.6215 7.99996 9.99984 7.99996C11.3782 7.99996 12.4998 9.12162 12.4998 10.5C12.4998 11.8783 11.3782 13 9.99984 13ZM9.99984 6.33329C7.70234 6.33329 5.83317 8.20246 5.83317 10.5C5.83317 12.7975 7.70234 14.6666 9.99984 14.6666C12.2973 14.6666 14.1665 12.7975 14.1665 10.5C14.1665 8.20246 12.2973 6.33329 9.99984 6.33329ZM9.99984 17.1666C6.324 17.1666 3.33317 14.1758 3.33317 10.5C3.33317 6.82413 6.324 3.83329 9.99984 3.83329C13.6757 3.83329 16.6665 6.82413 16.6665 10.5C16.6665 14.1758 13.6757 17.1666 9.99984 17.1666ZM9.99984 2.16663C5.40484 2.16663 1.6665 5.90496 1.6665 10.5C1.6665 15.095 5.40484 18.8333 9.99984 18.8333C14.5948 18.8333 18.3332 15.095 18.3332 10.5C18.3332 5.90496 14.5948 2.16663 9.99984 2.16663Z" fill="white"/>
</svg>