<svg xmlns="http://www.w3.org/2000/svg" width="20" height="21" viewBox="0 0 20 21" fill="none">
  <path fillRule="evenodd" clip-rule="evenodd" d="M10.0002 3.83337C12.2977 3.83337 14.1668 5.70254 14.1668 8.00004C14.1668 10.0117 12.7327 11.6959 10.8335 12.0817V13C10.8335 13.4609 10.461 13.8334 10.0002 13.8334C9.53933 13.8334 9.16683 13.4609 9.16683 13V11.3334C9.16683 10.8725 9.53933 10.5 10.0002 10.5C11.3785 10.5 12.5002 9.37837 12.5002 8.00004C12.5002 6.62171 11.3785 5.50004 10.0002 5.50004C8.62183 5.50004 7.50016 6.62171 7.50016 8.00004C7.50016 8.46087 7.12766 8.83337 6.66683 8.83337C6.206 8.83337 5.8335 8.46087 5.8335 8.00004C5.8335 5.70254 7.70266 3.83337 10.0002 3.83337ZM9.16683 16.3334C9.16683 15.8725 9.53933 15.5 10.0002 15.5C10.461 15.5 10.8335 15.8725 10.8335 16.3334C10.8335 16.7942 10.461 17.1667 10.0002 17.1667C9.53933 17.1667 9.16683 16.7942 9.16683 16.3334Z" fill="white"/>
</svg>