<svg width="20" height="21" viewBox="0 0 20 21" fill="none" xmlns="http://www.w3.org/2000/svg">
<path fillRule="evenodd" clip-rule="evenodd" d="M14.1667 7.16699H3.33335C2.87335 7.16699 2.50002 6.79449 2.50002 6.33365C2.50002 5.87282 2.87335 5.50032 3.33335 5.50032H14.235L12.9367 4.49199C12.5734 4.20949 12.5075 3.68532 12.79 3.32282C13.0725 2.95865 13.5967 2.89282 13.9592 3.17532L17.1775 5.67532C17.3834 5.83449 17.5017 6.08032 17.5 6.34115C17.4984 6.60032 17.375 6.84449 17.1667 7.00032L13.8334 9.50032C13.6834 9.61282 13.5075 9.66699 13.3342 9.66699C13.0809 9.66699 12.83 9.55199 12.6667 9.33365C12.3909 8.96532 12.465 8.44282 12.8334 8.16699L14.1667 7.16699ZM5.83335 13.0003H16.6667C17.1267 13.0003 17.5 13.3728 17.5 13.8337C17.5 14.2945 17.1267 14.667 16.6667 14.667H5.76502L7.06335 15.6753C7.42668 15.9578 7.49252 16.482 7.21002 16.8445C7.04585 17.0562 6.80002 17.167 6.55168 17.167C6.37252 17.167 6.19252 17.1103 6.04085 16.992L2.82252 14.492C2.61668 14.3328 2.49835 14.087 2.50002 13.8262C2.50168 13.567 2.62502 13.3228 2.83335 13.167L6.16668 10.667C6.53585 10.3912 7.05752 10.4653 7.33335 10.8337C7.60918 11.202 7.53502 11.7245 7.16668 12.0003L5.83335 13.0003Z" fill="white"/>
</svg>
