<svg width="21" height="21" viewBox="0 0 21 21" fill="none" xmlns="http://www.w3.org/2000/svg">
  <path fillRule="evenodd" clip-rule="evenodd" d="M10.4996 11.2761C9.79667 11.2761 9.22461 10.704 9.22461 10.0011C9.22461 9.29813 9.79667 8.72607 10.4996 8.72607C11.2026 8.72607 11.7746 9.29813 11.7746 10.0011C11.7746 10.704 11.2026 11.2761 10.4996 11.2761ZM10.5004 7.02539C8.85991 7.02539 7.52539 8.35991 7.52539 10.0004C7.52539 11.6409 8.85991 12.9755 10.5004 12.9755C12.1409 12.9755 13.4755 11.6409 13.4755 10.0004C13.4755 8.35991 12.1409 7.02539 10.5004 7.02539ZM10.6857 14.2484C7.02559 14.3334 4.63791 11.2028 3.8457 9.9966C4.71781 8.63233 6.91424 5.8392 10.3126 5.7525C13.9583 5.65985 16.3596 8.79808 17.1518 10.0042C16.2805 11.3685 14.0832 14.1617 10.6857 14.2484ZM18.8878 9.57793C18.3455 8.63272 15.3501 3.89476 10.2704 4.05371C5.57153 4.17271 2.83875 8.31227 2.11284 9.57793C1.96239 9.83973 1.96239 10.1619 2.11284 10.4237C2.6475 11.3562 5.53753 15.9505 10.5211 15.9505C10.5908 15.9505 10.6605 15.9496 10.7302 15.9479C15.4283 15.8281 18.1619 11.6894 18.8878 10.4237C19.0374 10.1619 19.0374 9.83973 18.8878 9.57793Z" fill="url(#paint0_linear_425_8676)"/>
  <defs>
    <linearGradient id="paint0_linear_425_8676" x1="10.5" y1="4.0498" x2="10.5" y2="15.9505" gradientUnits="userSpaceOnUse">
      <stop stopColor="#625FF4"/>
      <stop offset="1" stopColor="#625FF8"/>
    </linearGradient>
  </defs>
</svg>
