<svg xmlns="http://www.w3.org/2000/svg" width="20" height="21" viewBox="0 0 20 21" fill="none">
  <path fillRule="evenodd" clip-rule="evenodd" d="M5.83334 9.6661C5.83334 9.2061 6.20667 8.83277 6.66667 8.83277C7.12667 8.83277 7.5 9.2061 7.5 9.6661C7.5 10.1261 7.12667 10.4994 6.66667 10.4994C6.20667 10.4994 5.83334 10.1261 5.83334 9.6661ZM10 8.83277C9.54 8.83277 9.16667 9.2061 9.16667 9.6661C9.16667 10.1261 9.54 10.4994 10 10.4994C10.46 10.4994 10.8333 10.1261 10.8333 9.6661C10.8333 9.2061 10.46 8.83277 10 8.83277ZM13.3333 8.83277C12.8733 8.83277 12.5 9.2061 12.5 9.6661C12.5 10.1261 12.8733 10.4994 13.3333 10.4994C13.7933 10.4994 14.1667 10.1261 14.1667 9.6661C14.1667 9.2061 13.7933 8.83277 13.3333 8.83277ZM16.5821 10.7452C16.1596 13.4569 13.9738 15.706 11.2663 16.2135C9.95877 16.4602 8.6271 16.3194 7.41877 15.8077C7.07627 15.6627 6.7221 15.5894 6.3746 15.5894C6.21627 15.5894 6.0596 15.6044 5.90544 15.6352L3.5621 16.1035L4.03127 13.756C4.1296 13.2685 4.0696 12.7469 3.85877 12.2477C3.3471 11.0394 3.2071 9.70853 3.45294 8.40019C3.96044 5.69269 6.20877 3.50686 8.92127 3.08436C11.0796 2.74853 13.1904 3.42853 14.7138 4.95186C16.2379 6.47603 16.9188 8.58769 16.5821 10.7452ZM15.8928 3.77352C13.9887 1.87018 11.3553 1.02102 8.6645 1.43685C5.267 1.96685 2.45034 4.70352 1.8145 8.09268C1.50784 9.72435 1.6845 11.386 2.32367 12.8969C2.4045 13.0894 2.4295 13.2685 2.39784 13.4294L1.68284 17.0027C1.62784 17.276 1.71367 17.5585 1.91117 17.7552C2.06867 17.9135 2.28117 17.9994 2.50034 17.9994C2.5545 17.9994 2.60867 17.9944 2.66367 17.9835L6.23284 17.2694C6.43784 17.2302 6.63617 17.2877 6.76867 17.3427C8.28117 17.9819 9.94284 18.1577 11.5728 17.8519C14.9628 17.216 17.6995 14.3994 18.2295 11.0019C18.6478 8.31268 17.797 5.67768 15.8928 3.77352Z" fill="white"/>
</svg>