<svg width="168" height="40" viewBox="0 0 491 119" fill="none" xmlns="http://www.w3.org/2000/svg">
<path d="M0 60C0 27.1382 27.1382 0 60 0C92.8618 0 119 27.1382 119 60C119 92.8618 92.8618 119 60 119C27.1382 119 0 92.8618 0 60ZM77 60V36H65V89L95 60H77ZM54 30L24 60H42V83H54V30Z" fill="#6360F4"/>
<path d="M376.091 76.7793L384.636 48H389.899L388.464 56.6133L379.851 84.9824H375.134L376.091 76.7793ZM371.066 48L377.731 76.916L378.278 84.9824H373.015L363 48H371.066ZM397.897 76.5742L404.357 48H412.39L402.409 84.9824H397.146L397.897 76.5742ZM390.788 48L399.23 76.4375L400.29 84.9824H395.573L386.857 56.5791L385.422 48H390.788Z" fill="white"/>
<path d="M169 84H144V35H168C172.354 35 175.554 35.5855 178 38C180.495 40.3652 182 43.4029 182 47C182 49.9565 181.663 52.9304 180 55C178.386 57.0203 175.397 58.5072 173 59C175.642 59.3942 178.19 60.6348 180 63C181.859 65.3159 183 67.9942 183 71C183 74.942 181.544 77.5362 179 80C176.505 82.4638 173.452 84 169 84ZM166 55C168.152 55 169.777 54.1826 171 53C172.223 51.8174 173 50.8725 173 49C173 47.0783 172.223 45.1826 171 44C169.777 42.8174 168.152 42 166 42H153V55H166ZM167 77C169.348 77 170.679 76.1826 172 75C173.321 73.7681 174 72.1681 174 70C174 68.0783 173.321 66.2812 172 65C170.679 63.6696 169.348 63 167 63H153V77H167Z" fill="white"/>
<path d="M195 44C193.728 44 192.978 43.9362 192 43C191.071 42.0638 190 40.3304 190 39C190 37.6696 191.071 36.9362 192 36C192.978 35.0638 193.728 34 195 34C196.321 34 198.071 35.0638 199 36C199.929 36.9362 200 37.6696 200 39C200 40.3304 199.929 42.0638 199 43C198.071 43.9362 196.321 44 195 44ZM199 84H191V48H199V84Z" fill="white"/>
<path d="M220 85C217.016 85 214.565 84.5768 213 83C211.483 81.4232 211 78.9565 211 76V55H205V48H211V39H218V48H225V55H218V74C218 75.2812 218.413 76.2116 219 77C219.587 77.7391 220.924 78 222 78C223.565 78 224.266 77.8377 225 77L227 83C225.386 84.5275 223.229 85 220 85Z" fill="white"/>
<path d="M256 85C248.662 85 242.892 82.7304 238 78C233.108 73.2203 231 67.4899 231 60C231 52.5101 233.108 45.7304 238 41C242.892 36.2203 248.662 34 256 34C264.512 34 271.402 37.6087 276 45L269 49C267.777 46.8812 265.25 45.3304 263 44C260.799 42.6696 258.544 42 256 42C251.157 42 247.229 43.6493 244 47C240.82 50.3507 239 54.8261 239 60C239 65.1739 240.82 68.6493 244 72C247.229 75.3507 251.157 77 256 77C258.593 77 260.799 76.3304 263 75C265.201 73.6696 267.777 72.1188 269 70L276 74C271.304 81.3913 264.414 85 256 85Z" fill="white"/>
<path d="M299 85C293.521 85 288.327 83.5971 285 80C281.673 76.3536 280 71.2725 280 66C280 60.7275 281.673 56.5971 285 53C288.327 49.4029 293.521 48 299 48C304.528 48 308.673 49.4029 312 53C315.327 56.5971 317 60.7275 317 66C317 71.3217 315.327 76.4029 312 80C308.673 83.5971 304.528 85 299 85ZM299 78C302.18 78 304.19 77.2667 306 75C307.859 72.6841 309 69.3507 309 66C309 62.6986 307.859 60.2667 306 58C304.19 55.6841 302.18 54 299 54C295.869 54 292.859 55.6841 291 58C289.19 60.2667 288 62.6986 288 66C288 69.3507 289.19 72.6841 291 75C292.859 77.2667 295.869 78 299 78Z" fill="white"/>
<path d="M356 84H348V62C348 57.0725 345.745 54 341 54C339.141 54 337.614 55.0638 336 56C334.386 56.9362 332.978 57.6696 332 59V84H325V48H332V53C333.321 51.4232 335.799 50.1333 338 49C340.201 47.8667 342.407 48 345 48C348.767 48 351.092 48.029 353 50C354.957 51.971 356 55.3043 356 59V84Z" fill="white"/>
<path d="M434.5 85C429.119 85 425.022 83.4493 421.5 80C418.027 76.5014 416.5 71.5681 416.5 66C416.5 60.7768 418.125 56.5971 421.5 53C424.924 49.3536 429.315 48 434.5 48C439.734 48 444.32 49.3536 447.5 53C450.729 56.6464 451.5 61.3333 451.5 67V69H424.5C424.794 71.8087 425.494 74.1275 427.5 76C429.506 77.8725 432.271 79 435.5 79C437.31 79 439.69 78.6899 441.5 78C443.359 77.3101 444.277 76.2319 445.5 75L449.5 80C445.929 83.4493 440.517 85 434.5 85ZM444.5 63C444.402 60.5362 443.212 58.9217 441.5 57C439.837 55.0783 437.68 54 434.5 54C431.467 54 429.212 55.0783 427.5 57C425.788 58.8725 424.696 60.487 424.5 63H444.5Z" fill="white"/>
<path d="M490.5 84H481.5L472.5 71L463.5 84H454.5L467.5 66L455.5 48H464.5L472.5 61L481.5 48H489.5L477.5 66L490.5 84Z" fill="white"/>
</svg>
