<svg
  width="168"
  height="40"
  viewBox="0 0 168 40"
  fill="none"
  xmlns="http://www.w3.org/2000/svg"
>
  <path
    d="M0 20C0 8.954 8.954 0 20 0C31.046 0 40 8.954 40 20C40 31.046 31.046 40 20 40C8.954 40 0 31.046 0 20ZM26 20V12H22V30L32 20H26ZM18 10L8 20H14V28H18V10Z"
    fill="url(#paint0_radial_88_3433)"
  />
  <path
    d="M64.3029 28.2043H56V11.771H64.0812C65.543 11.771 66.6845 12.1734 67.5058 12.9783C68.3435 13.7667 68.7623 14.7604 68.7623 15.9594C68.7623 16.9449 68.4831 17.7826 67.9246 18.4725C67.3826 19.1459 66.7092 19.5647 65.9043 19.729C66.7913 19.8604 67.5386 20.3203 68.1464 21.1087C68.7705 21.8807 69.0826 22.7676 69.0826 23.7696C69.0826 25.0836 68.6556 26.1512 67.8014 26.9725C66.9638 27.7937 65.7976 28.2043 64.3029 28.2043ZM63.4899 18.571C64.2126 18.571 64.7792 18.3739 65.1899 17.9797C65.6005 17.5855 65.8058 17.0763 65.8058 16.4522C65.8058 15.8116 65.6005 15.2942 65.1899 14.9C64.7792 14.5058 64.2126 14.3087 63.4899 14.3087H58.8826V18.571H63.4899ZM63.613 25.6667C64.4014 25.6667 65.0174 25.4696 65.4609 25.0754C65.9043 24.6647 66.1261 24.0981 66.1261 23.3754C66.1261 22.7348 65.9043 22.201 65.4609 21.7739C65.0174 21.3304 64.4014 21.1087 63.613 21.1087H58.8826V25.6667H63.613Z"
    fill="white"
  />
  <path
    d="M73.1832 14.8507C72.7562 14.8507 72.3784 14.6947 72.0499 14.3826C71.7378 14.0705 71.5818 13.6928 71.5818 13.2493C71.5818 12.8058 71.7378 12.428 72.0499 12.1159C72.3784 11.8039 72.7562 11.6478 73.1832 11.6478C73.6267 11.6478 74.0045 11.8039 74.3166 12.1159C74.6287 12.428 74.7847 12.8058 74.7847 13.2493C74.7847 13.6928 74.6287 14.0705 74.3166 14.3826C74.0045 14.6947 73.6267 14.8507 73.1832 14.8507ZM74.489 28.2043H71.9021V16.3043H74.489V28.2043Z"
    fill="white"
  />
  <path
    d="M81.4174 28.5C80.4155 28.5 79.6517 28.2372 79.1261 27.7116C78.6169 27.186 78.3624 26.4304 78.3624 25.4449V18.571H76.3913V16.3043H78.3624V13.0522H80.9493V16.3043H83.3638V18.571H80.9493V24.8043C80.9493 25.2314 81.0479 25.5763 81.245 25.8391C81.4421 26.0855 81.7213 26.2087 82.0826 26.2087C82.6082 26.2087 82.9942 26.0691 83.2406 25.7899L83.8566 27.7362C83.3145 28.2454 82.5015 28.5 81.4174 28.5Z"
    fill="white"
  />
  <path
    d="M93.6706 28.5C91.2069 28.5 89.1537 27.7116 87.5112 26.1348C85.8687 24.5415 85.0474 22.4966 85.0474 20C85.0474 17.5034 85.8687 15.4667 87.5112 13.8899C89.1537 12.2966 91.2069 11.5 93.6706 11.5C96.5286 11.5 98.7296 12.7319 100.274 15.1957L97.8098 16.4522C97.3991 15.7459 96.816 15.171 96.0605 14.7275C95.3214 14.2841 94.5247 14.0623 93.6706 14.0623C92.0445 14.0623 90.6895 14.6208 89.6054 15.7377C88.5378 16.8546 88.004 18.2754 88.004 20C88.004 21.7246 88.5378 23.1454 89.6054 24.2623C90.6895 25.3792 92.0445 25.9377 93.6706 25.9377C94.5412 25.9377 95.346 25.7159 96.0851 25.2725C96.8242 24.829 97.3991 24.2541 97.8098 23.5478L100.274 24.8043C98.6967 27.2681 96.4958 28.5 93.6706 28.5Z"
    fill="white"
  />
  <path
    d="M107.878 28.5C106.038 28.5 104.56 27.9005 103.443 26.7014C102.326 25.486 101.768 23.9995 101.768 22.242C101.768 20.4845 102.326 19.0063 103.443 17.8072C104.56 16.6082 106.038 16.0087 107.878 16.0087C109.734 16.0087 111.22 16.6082 112.337 17.8072C113.454 19.0063 114.012 20.4845 114.012 22.242C114.012 24.0159 113.454 25.5024 112.337 26.7014C111.22 27.9005 109.734 28.5 107.878 28.5ZM107.878 26.2087C108.945 26.2087 109.783 25.8309 110.391 25.0754C111.015 24.3034 111.327 23.3589 111.327 22.242C111.327 21.1415 111.015 20.2135 110.391 19.458C109.783 18.686 108.945 18.3 107.878 18.3C106.827 18.3 105.989 18.686 105.365 19.458C104.757 20.2135 104.453 21.1415 104.453 22.242C104.453 23.3589 104.757 24.3034 105.365 25.0754C105.989 25.8309 106.827 26.2087 107.878 26.2087Z"
    fill="white"
  />
  <path
    d="M127.249 28.2043H124.662V20.7638C124.662 19.1213 123.865 18.3 122.272 18.3C121.648 18.3 121.065 18.456 120.523 18.7681C119.981 19.0802 119.546 19.458 119.217 19.9014V28.2043H116.63V16.3043H119.217V17.9304C119.66 17.4048 120.252 16.9531 120.991 16.5754C121.73 16.1976 122.535 16.0087 123.405 16.0087C124.67 16.0087 125.623 16.3372 126.263 16.9942C126.92 17.6512 127.249 18.5957 127.249 19.8275V28.2043Z"
    fill="white"
  />
  <path
    d="M136.522 28.2043H133.738L128.884 16.3043H131.644L135.118 25.2232L138.592 16.3043H141.376L136.522 28.2043Z"
    fill="white"
  />
  <path
    d="M148.494 28.5C146.688 28.5 145.193 27.9251 144.01 26.7754C142.844 25.6092 142.261 24.0981 142.261 22.242C142.261 20.501 142.828 19.0309 143.961 17.8319C145.111 16.6164 146.556 16.0087 148.297 16.0087C150.055 16.0087 151.467 16.6164 152.535 17.8319C153.619 19.0473 154.161 20.5995 154.161 22.4884V23.1043H144.971C145.07 24.0406 145.456 24.8208 146.129 25.4449C146.802 26.0691 147.681 26.3812 148.765 26.3812C149.373 26.3812 149.981 26.2662 150.588 26.0362C151.213 25.8063 151.73 25.486 152.141 25.0754L153.323 26.7754C152.124 27.9251 150.515 28.5 148.494 28.5ZM151.648 21.2812C151.615 20.4599 151.311 19.729 150.736 19.0884C150.178 18.4478 149.365 18.1275 148.297 18.1275C147.279 18.1275 146.482 18.4478 145.907 19.0884C145.332 19.7126 145.012 20.4435 144.946 21.2812H151.648Z"
    fill="white"
  />
  <path
    d="M167.136 28.2043H164.229L161.149 23.8188L158.045 28.2043H155.162L159.523 22.0942L155.409 16.3043H158.316L161.149 20.3449L163.958 16.3043H166.865L162.751 22.0942L167.136 28.2043Z"
    fill="white"
  />
  <defs>
    <radialGradient
      id="paint0_radial_88_3433"
      cx="0"
      cy="0"
      r="1"
      gradientUnits="userSpaceOnUse"
      gradientTransform="translate(20 20) rotate(90) scale(20)"
    >
      <stop stopColor="#7673F5"/>
      <stop offset="1" stopColor="#625FF4"/>
    </radialGradient>
  </defs>
</svg>
