<svg xmlns="http://www.w3.org/2000/svg" width="20" height="21" viewBox="0 0 20 21" fill="none">
  <path fillRule="evenodd" clip-rule="evenodd" d="M13.6515 12.1667H7.30317L5.939 7.16667H16.1515L13.6515 12.1667ZM17.569 6.29C17.2632 5.795 16.7332 5.5 16.1515 5.5H5.48484L4.97067 3.61417C4.8715 3.25167 4.54234 3 4.1665 3H2.49984C2.039 3 1.6665 3.37333 1.6665 3.83333C1.6665 4.29333 2.039 4.66667 2.49984 4.66667H3.52984L5.86234 13.2192C5.9615 13.5817 6.29067 13.8333 6.6665 13.8333H14.1665C14.4823 13.8333 14.7707 13.655 14.9123 13.3725L17.6423 7.91167C17.9032 7.39083 17.8748 6.785 17.569 6.29ZM6.25 15.5C5.56 15.5 5 16.0592 5 16.75C5 17.4408 5.56 18 6.25 18C6.94 18 7.5 17.4408 7.5 16.75C7.5 16.0592 6.94 15.5 6.25 15.5ZM13.3333 16.75C13.3333 16.0592 13.8933 15.5 14.5833 15.5C15.2733 15.5 15.8333 16.0592 15.8333 16.75C15.8333 17.4408 15.2733 18 14.5833 18C13.8933 18 13.3333 17.4408 13.3333 16.75Z" fill="white"/>
</svg>