 <svg width="223" height="73" viewBox="0 0 223 73" fill="none" xmlns="http://www.w3.org/2000/svg">
            <path
              d="M0.700928 29.421C0.700928 13.7138 13.6017 0.742371 29.2234 0.742371C44.8451 0.742371 57.2705 13.7138 57.2705 29.421C57.2705 45.1282 44.8451 57.6217 29.2234 57.6217C13.6017 57.6217 0.700928 45.1282 0.700928 29.421ZM37.3047 29.421V17.9496H31.6003V43.2824L45.8615 29.421H37.3047ZM26.3711 15.0817L12.1099 29.421H20.6666V40.4145H26.3711V15.0817Z"
              fill="#6360F4"
            />
            <path
              d="M77.2385 40.8925H65.3541V17.4716H76.7631C78.8328 17.4716 80.3541 17.7514 81.5168 18.9055C82.7028 20.036 83.4183 21.488 83.4183 23.2073C83.4183 24.6204 83.2582 26.0419 82.4676 27.0311C81.7002 27.9968 80.2794 28.7075 79.1399 28.943C80.3957 29.1314 81.6071 29.7244 82.4676 30.8549C83.3513 31.9619 83.8937 33.2421 83.8937 34.6788C83.8937 36.563 83.2015 37.8029 81.9922 38.9805C80.8062 40.1582 79.3547 40.8925 77.2385 40.8925ZM75.8123 27.0311C76.8356 27.0311 77.6078 26.6404 78.1892 26.0752C78.7706 25.5099 79.1399 25.0582 79.1399 24.1633C79.1399 23.2447 78.7706 22.3386 78.1892 21.7734C77.6078 21.2081 76.8356 20.8174 75.8123 20.8174H69.6325V27.0311H75.8123ZM76.2877 37.5466C77.4039 37.5466 78.0367 37.1559 78.6646 36.5907C79.2925 36.0019 79.6153 35.2371 79.6153 34.2008C79.6153 33.2822 79.2925 32.4233 78.6646 31.8109C78.0367 31.175 77.4039 30.8549 76.2877 30.8549H69.6325V37.5466H76.2877Z"
              fill="white"
            />
            <path
              d="M89.5982 21.7734C88.9936 21.7734 88.6372 21.7429 88.1721 21.2954C87.7302 20.8479 87.2213 20.0194 87.2213 19.3835C87.2213 18.7476 87.7302 18.397 88.1721 17.9495C88.6372 17.502 88.9936 16.9936 89.5982 16.9936C90.2261 16.9936 91.0578 17.502 91.4997 17.9495C91.9415 18.397 91.9751 18.7476 91.9751 19.3835C91.9751 20.0194 91.9415 20.8479 91.4997 21.2954C91.0578 21.7429 90.2261 21.7734 89.5982 21.7734ZM91.4997 40.8925H87.6967V23.6853H91.4997V40.8925Z"
              fill="white"
            />
            <path
              d="M101.483 41.3704C100.064 41.3704 98.8991 41.1682 98.1549 40.4145C97.434 39.6608 97.2042 38.4818 97.2042 37.0686V27.0311H94.3519V23.6853H97.2042V19.3835H100.532V23.6853H103.859V27.0311H100.532V36.1127C100.532 36.725 100.728 37.1698 101.007 37.5466C101.286 37.8999 101.922 38.0246 102.433 38.0246C103.177 38.0246 103.511 37.947 103.859 37.5466L104.81 40.4145C104.043 41.1446 103.017 41.3704 101.483 41.3704Z"
              fill="white"
            />
            <path
              d="M118.596 41.3704C115.108 41.3704 112.365 40.2856 110.039 38.0246C107.714 35.74 106.712 33.001 106.712 29.421C106.712 25.841 107.714 22.6005 110.039 20.3394C112.365 18.0548 115.108 16.9936 118.596 16.9936C122.642 16.9936 125.918 18.7185 128.103 22.2513L124.776 24.1633C124.194 23.1505 122.993 22.4093 121.924 21.7734C120.877 21.1374 119.805 20.8174 118.596 20.8174C116.294 20.8174 114.426 21.6057 112.892 23.2073C111.38 24.8089 110.515 26.948 110.515 29.421C110.515 31.894 111.38 33.5552 112.892 35.1567C114.426 36.7583 116.294 37.5466 118.596 37.5466C119.829 37.5466 120.877 37.2266 121.924 36.5907C122.97 35.9547 124.194 35.2135 124.776 34.2008L128.103 36.1127C125.871 39.6456 122.596 41.3704 118.596 41.3704Z"
              fill="white"
            />
            <path
              d="M139.037 41.3704C136.433 41.3704 133.963 40.6999 132.382 38.9805C130.801 37.2377 130.005 34.809 130.005 32.2889C130.005 29.7687 130.801 27.7945 132.382 26.0752C133.963 24.3558 136.433 23.6853 139.037 23.6853C141.665 23.6853 143.636 24.3558 145.217 26.0752C146.798 27.7945 147.594 29.7687 147.594 32.2889C147.594 34.8325 146.798 37.2612 145.217 38.9805C143.636 40.6999 141.665 41.3704 139.037 41.3704ZM139.037 38.0246C140.549 38.0246 141.504 37.6741 142.365 36.5907C143.248 35.4837 143.791 33.8904 143.791 32.2889C143.791 30.7108 143.248 29.5485 142.365 28.465C141.504 27.3581 140.549 26.5531 139.037 26.5531C137.549 26.5531 136.118 27.3581 135.234 28.465C134.374 29.5485 133.808 30.7108 133.808 32.2889C133.808 33.8904 134.374 35.4837 135.234 36.5907C136.118 37.6741 137.549 38.0246 139.037 38.0246Z"
              fill="white"
            />
            <path
              d="M166.133 40.8925H162.33V30.377C162.33 28.0217 161.259 26.5531 159.003 26.5531C158.119 26.5531 157.393 27.0616 156.626 27.5091C155.859 27.9566 155.19 28.3071 154.724 28.943V40.8925H151.397V23.6853H154.724V26.0752C155.352 25.3215 156.53 24.705 157.577 24.1633C158.623 23.6215 159.672 23.6853 160.904 23.6853C162.695 23.6853 163.8 23.6991 164.707 24.6412C165.638 25.5833 166.133 27.1766 166.133 28.943V40.8925Z"
              fill="white"
            />
            <path d="M179.444 40.8925H175.641L168.51 23.6853H172.313L177.542 36.5907L182.296 23.6853H186.099L179.444 40.8925Z" fill="white" />
            <path
              d="M196.082 41.3704C193.524 41.3704 191.577 40.6292 189.902 38.9805C188.251 37.3083 187.525 34.9503 187.525 32.2889C187.525 29.7923 188.298 27.7945 189.902 26.0752C191.53 24.3323 193.617 23.6853 196.082 23.6853C198.57 23.6853 200.75 24.3323 202.262 26.0752C203.797 27.818 204.163 30.0583 204.163 32.7668V33.7228H191.328C191.468 35.0653 191.801 36.1736 192.754 37.0686C193.708 37.9636 195.023 38.5026 196.557 38.5026C197.418 38.5026 198.549 38.3543 199.41 38.0246C200.293 37.6949 200.73 37.1795 201.311 36.5907L203.213 38.9805C201.515 40.6292 198.942 41.3704 196.082 41.3704ZM200.836 30.8549C200.789 29.6773 200.224 28.9056 199.41 27.9871C198.619 27.0685 197.594 26.5531 196.082 26.5531C194.64 26.5531 193.568 27.0685 192.754 27.9871C191.94 28.8821 191.421 29.6538 191.328 30.8549H200.836Z"
              fill="white"
            />
            <path
              d="M222.703 40.8925H218.425L214.146 34.6788L209.868 40.8925H205.589L211.769 32.2889L206.065 23.6853H210.343L214.146 29.899L218.425 23.6853H222.228L216.523 32.2889L222.703 40.8925Z"
              fill="white"
            />
            <path
              d="M217.549 66.7501C217.549 66.295 217.479 65.8905 217.338 65.5365C217.207 65.1825 216.971 64.8589 216.629 64.5656C216.287 64.2723 215.804 63.9892 215.18 63.7161C214.567 63.4329 213.782 63.1447 212.827 62.8514C211.781 62.5278 210.815 62.1687 209.93 61.7743C209.055 61.3698 208.29 60.9046 207.637 60.3787C206.983 59.8426 206.475 59.2308 206.113 58.5431C205.751 57.8452 205.57 57.0412 205.57 56.131C205.57 55.2309 205.756 54.4117 206.128 53.6734C206.51 52.9352 207.048 52.298 207.742 51.762C208.446 51.2159 209.276 50.7962 210.232 50.5029C211.187 50.1995 212.243 50.0478 213.4 50.0478C215.029 50.0478 216.433 50.3512 217.609 50.958C218.796 51.5648 219.707 52.3789 220.34 53.4004C220.984 54.4218 221.306 55.5495 221.306 56.7833H217.549C217.549 56.0552 217.393 55.4129 217.081 54.8567C216.78 54.2904 216.317 53.8454 215.693 53.5217C215.08 53.1981 214.3 53.0363 213.355 53.0363C212.46 53.0363 211.715 53.1728 211.122 53.4459C210.528 53.7189 210.086 54.0881 209.794 54.5533C209.502 55.0185 209.357 55.5444 209.357 56.131C209.357 56.5457 209.452 56.9249 209.643 57.2688C209.834 57.6025 210.126 57.916 210.518 58.2093C210.911 58.4925 211.403 58.7605 211.997 59.0133C212.59 59.2662 213.289 59.5089 214.094 59.7415C215.311 60.1056 216.372 60.5101 217.277 60.9551C218.183 61.39 218.937 61.8856 219.541 62.4418C220.144 62.998 220.597 63.6301 220.898 64.3381C221.2 65.0359 221.351 65.8298 221.351 66.7198C221.351 67.6502 221.165 68.4896 220.793 69.238C220.421 69.9763 219.888 70.6084 219.194 71.1343C218.51 71.6501 217.685 72.0496 216.719 72.3328C215.764 72.6058 214.698 72.7423 213.521 72.7423C212.465 72.7423 211.424 72.6008 210.398 72.3176C209.382 72.0344 208.456 71.6046 207.621 71.0281C206.787 70.4415 206.123 69.7134 205.63 68.8436C205.137 67.9637 204.891 66.9372 204.891 65.7641H208.678C208.678 66.4821 208.798 67.094 209.04 67.5997C209.291 68.1053 209.638 68.52 210.081 68.8436C210.523 69.1571 211.036 69.3897 211.62 69.5414C212.213 69.6931 212.847 69.769 213.521 69.769C214.406 69.769 215.145 69.6426 215.739 69.3897C216.342 69.1369 216.795 68.7829 217.096 68.3278C217.398 67.8727 217.549 67.3468 217.549 66.7501Z"
              fill="white"
            />
            <path
              d="M202.9 69.4201V72.439H191.237V69.4201H202.9ZM192.309 50.3512V72.439H188.522V50.3512H192.309ZM201.376 59.5747V62.548H191.237V59.5747H201.376ZM202.825 50.3512V53.3852H191.237V50.3512H202.825Z"
              fill="white"
            />
            <path
              d="M169.058 50.3512H176.828C178.498 50.3512 179.921 50.604 181.098 51.1097C182.275 51.6154 183.175 52.3638 183.799 53.3549C184.433 54.3359 184.749 55.5495 184.749 56.9957C184.749 58.0981 184.548 59.069 184.146 59.9084C183.744 60.7478 183.175 61.4558 182.441 62.0322C181.707 62.5986 180.832 63.0385 179.816 63.352L178.669 63.9133H171.684L171.653 60.8945H176.889C177.794 60.8945 178.548 60.7326 179.152 60.409C179.755 60.0854 180.208 59.6454 180.51 59.0892C180.822 58.5229 180.978 57.8857 180.978 57.1778C180.978 56.4091 180.827 55.7417 180.525 55.1753C180.233 54.5988 179.781 54.1589 179.167 53.8555C178.553 53.542 177.774 53.3852 176.828 53.3852H172.845V72.439H169.058V50.3512ZM181.596 72.439L176.436 62.5177L180.404 62.5025L185.64 72.2418V72.439H181.596Z"
              fill="white"
            />
            <path
              d="M161.167 50.3512H164.939V65.1118C164.939 66.7906 164.577 68.1964 163.853 69.3291C163.128 70.4618 162.143 71.3164 160.895 71.8928C159.658 72.4592 158.275 72.7424 156.746 72.7424C155.167 72.7424 153.759 72.4592 152.522 71.8928C151.285 71.3164 150.309 70.4618 149.595 69.3291C148.891 68.1964 148.539 66.7906 148.539 65.1118V50.3512H152.311V65.1118C152.311 66.1737 152.492 67.0485 152.854 67.7362C153.216 68.4138 153.729 68.9144 154.393 69.2381C155.057 69.5617 155.841 69.7235 156.746 69.7235C157.652 69.7235 158.431 69.5617 159.085 69.2381C159.749 68.9144 160.262 68.4138 160.624 67.7362C160.986 67.0485 161.167 66.1737 161.167 65.1118V50.3512Z"
              fill="white"
            />
            <path d="M139.05 50.3512V72.439H135.293V50.3512H139.05ZM145.945 50.3512V53.3852H128.458V50.3512H145.945Z" fill="white" />
            <path
              d="M122.119 50.3512H125.891V65.1118C125.891 66.7906 125.529 68.1964 124.805 69.3291C124.08 70.4618 123.095 71.3164 121.847 71.8928C120.61 72.4592 119.227 72.7424 117.698 72.7424C116.119 72.7424 114.711 72.4592 113.474 71.8928C112.237 71.3164 111.261 70.4618 110.547 69.3291C109.843 68.1964 109.491 66.7906 109.491 65.1118V50.3512H113.263V65.1118C113.263 66.1737 113.444 67.0485 113.806 67.7362C114.168 68.4138 114.681 68.9144 115.345 69.2381C116.009 69.5617 116.793 69.7235 117.698 69.7235C118.604 69.7235 119.383 69.5617 120.037 69.2381C120.701 68.9144 121.214 68.4138 121.576 67.7362C121.938 67.0485 122.119 66.1737 122.119 65.1118V50.3512Z"
              fill="white"
            />
            <path
              d="M96.5629 50.3512V72.439H92.7759V50.3512H96.5629ZM105.525 60.0146V63.0335H95.5973V60.0146H105.525ZM106.777 50.3512V53.3852H95.5973V50.3512H106.777Z"
              fill="white"
            />
          </svg>