<svg width="24" height="24" viewBox="0 0 24 24" fill="none" xmlns="http://www.w3.org/2000/svg">
<path fill-rule="evenodd" clip-rule="evenodd" d="M5.32471 4.25001C5.0126 4.25001 4.78077 4.34666 4.56368 4.56374C4.3466 4.78083 4.24995 5.01266 4.24995 5.32477V18.8753C4.24995 19.1874 4.3466 19.4192 4.56368 19.6363C4.78077 19.8534 5.0126 19.95 5.32471 19.95H5.88458V15.1026C5.88458 13.9152 6.84717 12.9526 8.03458 12.9526H15.9647C17.1521 12.9526 18.1147 13.9152 18.1147 15.1026V19.95H18.8752C19.1873 19.95 19.4191 19.8534 19.6362 19.6363C19.8533 19.4192 19.95 19.1874 19.95 18.8753V8.04655C19.95 7.89761 19.9228 7.76458 19.8704 7.63811C19.8171 7.5094 19.7428 7.39778 19.6426 7.29751L17.1733 4.82824V7.08145C17.1733 8.26886 16.2107 9.23145 15.0233 9.23145H9.98704C8.79963 9.23145 7.83704 8.26886 7.83704 7.08145V4.25001H5.32471ZM10.137 4.25001V6.93145H14.8733V4.25001H10.137ZM17.4426 2.2049C17.8515 2.37425 18.2159 2.61812 18.5288 2.93104L21.2689 5.67116C21.582 5.98422 21.8259 6.34874 21.9953 6.75788C22.1657 7.1691 22.25 7.60177 22.25 8.04655V18.8753C22.25 19.7947 21.9129 20.6123 21.2626 21.2626C20.6122 21.913 19.7946 22.25 18.8752 22.25H5.32471C4.4053 22.25 3.58766 21.913 2.93734 21.2626C2.28701 20.6123 1.94995 19.7947 1.94995 18.8753V5.32477C1.94995 4.40536 2.28701 3.58772 2.93734 2.9374C3.58766 2.28707 4.4053 1.95001 5.32471 1.95001H16.1534C16.5982 1.95001 17.0314 2.03452 17.4426 2.2049ZM15.8147 19.95V15.2526H8.18458V19.95H15.8147Z" fill="white"/>
</svg>
