<svg width="21" height="21" viewBox="0 0 21 21" fill="none" xmlns="http://www.w3.org/2000/svg">
  <path fillRule="evenodd" clip-rule="evenodd" d="M10.5 11.813C9.77637 11.813 9.1875 11.2241 9.1875 10.5005C9.1875 10.4891 9.19014 10.4778 9.19277 10.4666L9.19277 10.4666L9.19278 10.4666C9.19518 10.4564 9.19758 10.4462 9.198 10.4357L10.5647 11.8025C10.5543 11.8029 10.5441 11.8053 10.5339 11.8077L10.5339 11.8077C10.5227 11.8104 10.5114 11.813 10.5 11.813ZM4.11884 2.88159C3.77672 2.53947 3.22372 2.53947 2.88159 2.88159C2.53947 3.22372 2.53947 3.77672 2.88159 4.11884L7.80784 9.04509C7.56634 9.49047 7.43772 9.98484 7.43772 10.5002C7.43772 12.189 8.81147 13.5627 10.5002 13.5627C11.0156 13.5627 11.51 13.4341 11.9553 13.1926L16.8816 18.1188C17.0522 18.2895 17.2762 18.3752 17.5002 18.3752C17.7242 18.3752 17.9482 18.2895 18.1188 18.1188C18.461 17.7767 18.461 17.2237 18.1188 16.8816L4.11884 2.88159ZM10.6923 14.8731C6.92541 14.9606 4.46666 11.738 3.65116 10.4963C4.05103 9.8716 4.72128 8.95635 5.64878 8.12422L4.41416 6.88872C3.08241 8.1041 2.22841 9.43235 1.86616 10.065C1.71128 10.3345 1.71128 10.6661 1.86616 10.9356C2.41653 11.8955 5.39153 16.6248 10.5217 16.6248C10.5934 16.6248 10.6652 16.624 10.7369 16.6222C11.7729 16.596 12.7109 16.372 13.5605 16.036L12.178 14.6535C11.7099 14.7777 11.2173 14.86 10.6923 14.8731ZM10.2641 4.37798C15.4922 4.21436 18.5766 9.09161 19.1348 10.0646C19.2888 10.3341 19.2888 10.6657 19.1348 10.9352C18.7717 11.5679 17.9177 12.8961 16.586 14.1115L15.3513 12.876C16.2788 12.0439 16.95 11.1286 17.349 10.5039C16.5335 9.26223 14.0633 6.03261 10.3087 6.12711C9.78371 6.14023 9.29108 6.22248 8.82208 6.34673L7.43958 4.96423C8.29008 4.62823 9.22721 4.40423 10.2641 4.37798Z" fill="#6C7080"/>
</svg>
