<svg width="20.000000" height="20.000000" viewBox="0 0 20 20" fill="none" xmlns="http://www.w3.org/2000/svg" xmlns:xlink="http://www.w3.org/1999/xlink">
	<defs>
		<clipPath id="clip3600_14538">
			<rect id="Icon" width="20.000000" height="20.000000" fill="white" fillOpacity="0"/>
		</clipPath>
	</defs>
	<rect id="Icon" width="20.000000" height="20.000000" fill="#FFFFFF" fillOpacity="0"/>
	<g clip-path="url(#clip3600_14538)">
		<path id="Vector" d="M1.99219 15.5209L2.64307 15.5209L2.64307 15.6641C2.64307 15.8439 2.78857 15.9896 2.96875 15.9896C3.14844 15.9896 3.29395 15.8439 3.29395 15.6641L3.29395 15.5209L3.94531 15.5209C4.125 15.5209 4.27051 15.3751 4.27051 15.1953L4.27051 9.33594C4.27051 9.15613 4.125 9.01038 3.94531 9.01038L3.29395 9.01038L3.29395 7.20056C3.29395 7.02075 3.14844 6.875 2.96875 6.875C2.78857 6.875 2.64307 7.02075 2.64307 7.20056L2.64307 9.01038L1.99219 9.01038C1.81201 9.01038 1.6665 9.15613 1.6665 9.33594L1.6665 15.1953C1.6665 15.3751 1.81201 15.5209 1.99219 15.5209Z" fill="#FFFFFF" fillOpacity="1.000000" fillRule="nonzero"/>
		<path id="Vector" d="M6.26318 11.9402L6.91406 11.9402L6.91406 13.75C6.91406 13.9298 7.05957 14.0756 7.23975 14.0756C7.41943 14.0756 7.56494 13.9298 7.56494 13.75L7.56494 11.9402L8.21631 11.9402C8.396 11.9402 8.5415 11.7944 8.5415 11.6146L8.5415 5.75525C8.5415 5.57544 8.396 5.42969 8.21631 5.42969L7.56494 5.42969L7.56494 3.61987C7.56494 3.44006 7.41943 3.29431 7.23975 3.29431C7.05957 3.29431 6.91406 3.44006 6.91406 3.61987L6.91406 5.42969L6.26318 5.42969C6.08301 5.42969 5.9375 5.57544 5.9375 5.75525L5.9375 11.6146C5.9375 11.7944 6.08301 11.9402 6.26318 11.9402Z" fill="#FFFFFF" fillOpacity="1.000000" fillRule="nonzero"/>
		<path id="Vector" d="M10.5342 13.8933L11.1851 13.8933L11.1851 15.7031C11.1851 15.8829 11.3306 16.0287 11.5107 16.0287C11.6904 16.0287 11.8359 15.8829 11.8359 15.7031L11.8359 13.8933L12.4873 13.8933C12.667 13.8933 12.8125 13.7476 12.8125 13.5677L12.8125 7.70837C12.8125 7.52856 12.667 7.38281 12.4873 7.38281L11.8359 7.38281L11.8359 5.573C11.8359 5.39319 11.6904 5.24744 11.5107 5.24744C11.3306 5.24744 11.1851 5.39319 11.1851 5.573L11.1851 7.38281L10.5342 7.38281C10.354 7.38281 10.2085 7.52856 10.2085 7.70837L10.2085 13.5677C10.2085 13.7476 10.354 13.8933 10.5342 13.8933Z" fill="#FFFFFF" fillOpacity="1.000000" fillRule="nonzero"/>
		<path id="Vector" d="M14.8047 10.3125L15.4556 10.3125L15.4556 12.1223C15.4556 12.3021 15.6011 12.4479 15.7812 12.4479C15.9609 12.4479 16.1064 12.3021 16.1064 12.1223L16.1064 10.3125L16.7578 10.3125C16.9375 10.3125 17.083 10.1667 17.083 9.98694L17.083 4.12756C17.083 3.94775 16.9375 3.802 16.7578 3.802L16.1064 3.802L16.1064 1.99219C16.1064 1.81238 15.9609 1.66663 15.7812 1.66663C15.6011 1.66663 15.4556 1.81238 15.4556 1.99219L15.4556 3.802L14.8047 3.802C14.6245 3.802 14.479 3.94775 14.479 4.12756L14.479 9.98694C14.479 10.1667 14.6245 10.3125 14.8047 10.3125Z" fill="#FFFFFF" fillOpacity="1.000000" fillRule="nonzero"/>
		<path id="Vector" d="M16.6382 16.6666L1.6958 16.6666C1.4668 16.6666 1.24756 16.7544 1.08594 16.9106C0.924316 17.067 0.833496 17.2789 0.833496 17.5C0.833496 17.7209 0.924316 17.933 1.08594 18.0892C1.24756 18.2455 1.4668 18.3333 1.6958 18.3333L16.6382 18.3333C16.8667 18.3333 17.0859 18.2455 17.2476 18.0892C17.4092 17.933 17.5 17.7209 17.5 17.5C17.5 17.2789 17.4092 17.067 17.2476 16.9106C17.0859 16.7544 16.8667 16.6666 16.6382 16.6666Z" fill="#FFFFFF" fillOpacity="1.000000" fillRule="nonzero"/>
	</g>
</svg>
