<svg width="28" height="27" viewBox="0 0 28 27" fill="none" xmlns="http://www.w3.org/2000/svg">
  <path fillRule="evenodd" clip-rule="evenodd" d="M20.4805 17.4825L14.0005 21.2029L7.52051 17.4825L9.42626 16.6714L13.4403 18.9754C13.6135 19.0755 13.807 19.125 14.0005 19.125C14.194 19.125 14.3864 19.0755 14.5608 18.9754L18.5748 16.6703L20.4805 17.4825ZM13.4403 14.4754C13.6135 14.5755 13.807 14.625 14.0005 14.625C14.194 14.625 14.3864 14.5755 14.5608 14.4754L18.5748 12.1703L20.4805 12.9825L14.0005 16.7029L7.52051 12.9825L9.42626 12.1703L13.4403 14.4754ZM14.0005 5.7229L20.4805 8.48253L14.0005 12.2029L7.52051 8.48253L14.0005 5.7229ZM24.1235 12.7665C24.0977 12.3402 23.8333 11.9655 23.4407 11.7979L21.0197 10.7674L23.561 9.30829C23.9312 9.09679 24.1483 8.69291 24.1235 8.26654C24.0977 7.84129 23.8333 7.46554 23.4407 7.29791L14.4407 3.46504C14.1594 3.34466 13.841 3.34466 13.5598 3.46504L4.5598 7.29791C4.16717 7.46554 3.9028 7.84129 3.87805 8.26654C3.85217 8.69291 4.07042 9.09679 4.44055 9.30829L6.9808 10.7674L4.5598 11.7979C4.16717 11.9655 3.9028 12.3402 3.87805 12.7665C3.85217 13.1929 4.07042 13.5968 4.44055 13.8083L6.9808 15.2674L4.5598 16.2979C4.16717 16.4655 3.9028 16.8402 3.87805 17.2665C3.85217 17.6929 4.07042 18.0968 4.44055 18.3083L13.4405 23.4754C13.6138 23.5755 13.8073 23.625 14.0008 23.625C14.1943 23.625 14.3867 23.5755 14.561 23.4754L23.561 18.3083C23.9312 18.0968 24.1483 17.6929 24.1235 17.2665C24.0977 16.8413 23.8333 16.4655 23.4418 16.2979L21.0208 15.2663L23.561 13.8083C23.9312 13.5968 24.1483 13.1929 24.1235 12.7665Z" fill="white"/>
</svg>
