<svg xmlns="http://www.w3.org/2000/svg" width="20" height="21" viewBox="0 0 20 21" fill="none">
  <path fillRule="evenodd" clip-rule="evenodd" d="M5.83333 13.8333C5.83333 13.375 6.20833 13 6.66667 13C7.125 13 7.5 13.375 7.5 13.8333C7.5 14.2917 7.125 14.6667 6.66667 14.6667C6.20833 14.6667 5.83333 14.2917 5.83333 13.8333ZM10 13H13.3333C13.7917 13 14.1667 13.375 14.1667 13.8333C14.1667 14.2917 13.7917 14.6667 13.3333 14.6667H10C9.54167 14.6667 9.16667 14.2917 9.16667 13.8333C9.16667 13.375 9.54167 13 10 13ZM15 16.3333H5C4.54083 16.3333 4.16667 15.96 4.16667 15.5V11.3333H15.8333V15.5C15.8333 15.96 15.4592 16.3333 15 16.3333ZM6.95167 5.1275C7.09333 4.84333 7.37917 4.66667 7.69667 4.66667H12.3033C12.6208 4.66667 12.9067 4.84333 13.0483 5.1275L15.3183 9.66667H4.68167L6.95167 5.1275ZM17.3242 9.95167L14.5392 4.38167C14.1133 3.53 13.2567 3 12.3033 3H7.69667C6.74333 3 5.88667 3.53 5.46083 4.38167L2.67583 9.95167C2.56083 10.1817 2.5 10.44 2.5 10.6967V15.5C2.5 16.8783 3.62167 18 5 18H15C16.3783 18 17.5 16.8783 17.5 15.5V10.6967C17.5 10.44 17.4392 10.1817 17.3242 9.95167Z" fill="white"/>
</svg>