<svg width="28" height="19" viewBox="0 0 28 19" fill="none" xmlns="http://www.w3.org/2000/svg">
<path fill-rule="evenodd" clip-rule="evenodd" d="M26.3337 2.83317C26.8859 2.83317 27.3337 2.38545 27.3337 1.83317V1.1665C27.3337 0.614219 26.8859 0.166504 26.3337 0.166504H1.66699C1.11471 0.166504 0.666992 0.61422 0.666992 1.1665V1.83317C0.666992 2.38546 1.11471 2.83317 1.66699 2.83317H26.3337ZM26.3337 5.49984C26.8859 5.49984 27.3337 5.94755 27.3337 6.49984V7.1665C27.3337 7.71879 26.8859 8.1665 26.3337 8.1665H9.66699C9.11471 8.1665 8.66699 7.71879 8.66699 7.1665V6.49984C8.66699 5.94755 9.11471 5.49984 9.66699 5.49984H26.3337ZM26.3337 13.4998C26.8859 13.4998 27.3337 13.0521 27.3337 12.4998V11.8332C27.3337 11.2809 26.8859 10.8332 26.3337 10.8332H1.66699C1.11471 10.8332 0.666992 11.2809 0.666992 11.8332V12.4998C0.666992 13.0521 1.11471 13.4998 1.66699 13.4998H26.3337ZM26.3337 18.8332C26.8859 18.8332 27.3337 18.3855 27.3337 17.8332V17.1665C27.3337 16.6142 26.8859 16.1665 26.3337 16.1665H9.66699C9.11471 16.1665 8.66699 16.6142 8.66699 17.1665V17.8332C8.66699 18.3855 9.11471 18.8332 9.66699 18.8332H26.3337Z" fill="white"/>
</svg>
