<svg width="25" height="25" viewBox="0 0 25 25" fill="none" xmlns="http://www.w3.org/2000/svg">
<path fill-rule="evenodd" clip-rule="evenodd" d="M14.5031 12.5002L20.5846 6.41855C21.1385 5.86465 21.1385 4.96933 20.5846 4.41543C20.0307 3.86152 19.1354 3.86152 18.5815 4.41543L12.5 10.4971L6.4185 4.41543C5.86461 3.86152 4.96931 3.86152 4.41542 4.41543C3.86153 4.96933 3.86153 5.86465 4.41542 6.41855L10.4969 12.5002L4.41542 18.5818C3.86153 19.1357 3.86153 20.031 4.41542 20.5849C4.69166 20.8612 5.05431 21 5.41696 21C5.77961 21 6.14226 20.8612 6.4185 20.5849L12.5 14.5033L18.5815 20.5849C18.8577 20.8612 19.2204 21 19.583 21C19.9457 21 20.3083 20.8612 20.5846 20.5849C21.1385 20.031 21.1385 19.1357 20.5846 18.5818L14.5031 12.5002Z" fill="white"/>
</svg>
