<svg width="22" height="23" viewBox="0 0 22 23" fill="none" xmlns="http://www.w3.org/2000/svg">
<path fill-rule="evenodd" clip-rule="evenodd" d="M11.9172 3.81694C11.9172 3.31094 11.5075 2.90027 11.0006 2.90027C10.4937 2.90027 10.0839 3.31094 10.0839 3.81694V11.1503C10.0839 11.1733 10.0848 11.1962 10.0864 11.2188L7.86194 9.65395C7.44761 9.36245 6.87652 9.46329 6.58502 9.8767C6.29352 10.2901 6.39344 10.8621 6.80777 11.1536L10.4744 13.7331C10.798 13.9614 11.2344 13.955 11.5515 13.7166L15.2182 10.9666C15.6234 10.6632 15.7059 10.0885 15.4015 9.68329C15.2209 9.44312 14.9469 9.31662 14.6673 9.31662C14.4757 9.31662 14.2832 9.3762 14.1182 9.49995L11.9172 11.1505C11.9172 11.1504 11.9172 11.1503 11.9172 11.1503V3.81694ZM18.3346 17.5666C18.3346 17.5502 18.3342 17.5339 18.3333 17.5176V15.7326C18.3333 15.2285 17.9208 14.816 17.4167 14.816C16.9125 14.816 16.5 15.2285 16.5 15.7326V16.6499H5.5013V15.7336C5.5013 15.2294 5.0888 14.8169 4.58464 14.8169C4.08047 14.8169 3.66797 15.2294 3.66797 15.7336V17.5666V17.5669C3.66797 18.0711 4.08047 18.4836 4.58464 18.4836C4.59284 18.4836 4.60102 18.4835 4.60917 18.4833H17.418C17.9221 18.4833 18.3346 18.0708 18.3346 17.5666Z" fill="#0ECB7B"/>
</svg>
