<svg width="22" height="23" viewBox="0 0 22 23" fill="none" xmlns="http://www.w3.org/2000/svg">
<path fill-rule="evenodd" clip-rule="evenodd" d="M7.3359 7.48323C7.05632 7.48323 6.78223 7.35673 6.60165 7.11656C6.29732 6.71139 6.37982 6.13664 6.78498 5.83323L10.4517 3.08323C10.7688 2.84489 11.2052 2.83848 11.5287 3.06673L15.1954 5.64623C15.6097 5.93773 15.7097 6.50973 15.4181 6.92314C15.1266 7.33656 14.5556 7.43739 14.1412 7.14589L11.9167 5.58099C11.9184 5.60396 11.9193 5.62715 11.9193 5.65055V12.9839C11.9193 13.4899 11.5095 13.9006 11.0026 13.9006C10.4957 13.9006 10.0859 13.4899 10.0859 12.9839V5.65055C10.0859 5.65015 10.0859 5.64974 10.0859 5.64934L7.88498 7.29989C7.71998 7.42364 7.52748 7.48323 7.3359 7.48323ZM18.3346 17.5666C18.3346 17.5501 18.3342 17.5338 18.3333 17.5176V15.7326C18.3333 15.2284 17.9208 14.8159 17.4167 14.8159C16.9125 14.8159 16.5 15.2284 16.5 15.7326V16.6499H5.5013V15.7336C5.5013 15.2294 5.0888 14.8169 4.58464 14.8169C4.08047 14.8169 3.66797 15.2294 3.66797 15.7336V17.5666V17.5669C3.66797 18.0711 4.08047 18.4836 4.58464 18.4836C4.59284 18.4836 4.60102 18.4835 4.60917 18.4832H17.418C17.9221 18.4832 18.3346 18.0707 18.3346 17.5666Z" fill="#E42222"/>
</svg>
