<svg width="180" height="45" viewBox="0 0 180 45" fill="none" xmlns="http://www.w3.org/2000/svg">
<path d="M0 22.5C0 10.0733 10.0733 0 22.5 0C34.9268 0 45 10.0733 45 22.5C45 34.9268 34.9268 45 22.5 45C10.0733 45 0 34.9268 0 22.5ZM29.25 22.5V13.5H24.75V33.75L36 22.5H29.25ZM20.25 11.25L9 22.5H15.75V31.5H20.25V11.25Z" fill="url(#paint0_radial_6603_2)"/>
<path d="M62.4881 31.6696H53V13.3029H62.2347C63.9052 13.3029 65.2097 13.7527 66.1482 14.6522C67.1054 15.5333 67.584 16.644 67.584 17.9841C67.584 19.0855 67.265 20.0217 66.6268 20.7928C66.0074 21.5454 65.2378 22.0135 64.3181 22.1971C65.3317 22.344 66.1857 22.858 66.8802 23.7391C67.5934 24.6019 67.9501 25.5932 67.9501 26.713C67.9501 28.1816 67.462 29.3749 66.486 30.2928C65.5288 31.2106 64.1961 31.6696 62.4881 31.6696ZM61.559 20.9029C62.3848 20.9029 63.0324 20.6826 63.5016 20.242C63.9709 19.8014 64.2055 19.2324 64.2055 18.5348C64.2055 17.8188 63.9709 17.2406 63.5016 16.8C63.0324 16.3594 62.3848 16.1391 61.559 16.1391H56.2941V20.9029H61.559ZM61.6997 28.8333C62.6007 28.8333 63.3046 28.613 63.8113 28.1725C64.3181 27.7135 64.5715 27.0802 64.5715 26.2725C64.5715 25.5565 64.3181 24.9599 63.8113 24.4826C63.3046 23.987 62.6007 23.7391 61.6997 23.7391H56.2941V28.8333H61.6997Z" fill="white"/>
<path d="M72.636 16.7449C72.148 16.7449 71.7163 16.5705 71.3409 16.2217C70.9843 15.8729 70.806 15.4507 70.806 14.9551C70.806 14.4594 70.9843 14.0372 71.3409 13.6884C71.7163 13.3396 72.148 13.1652 72.636 13.1652C73.1428 13.1652 73.5745 13.3396 73.9311 13.6884C74.2878 14.0372 74.4661 14.4594 74.4661 14.9551C74.4661 15.4507 74.2878 15.8729 73.9311 16.2217C73.5745 16.5705 73.1428 16.7449 72.636 16.7449ZM74.1282 31.6696H71.172V18.3696H74.1282V31.6696Z" fill="white"/>
<path d="M82.0456 32C80.9006 32 80.0278 31.7063 79.4272 31.1188C78.8453 30.5314 78.5544 29.687 78.5544 28.5855V20.9029H76.302V18.3696H78.5544V14.7348H81.5106V18.3696H84.2698V20.9029H81.5106V27.8696C81.5106 28.3469 81.6233 28.7324 81.8485 29.0261C82.0737 29.3014 82.3928 29.4391 82.8057 29.4391C83.4064 29.4391 83.8475 29.2831 84.129 28.971L84.8329 31.1464C84.2135 31.7155 83.2844 32 82.0456 32Z" fill="white"/>
<path d="M96.0478 32C93.2324 32 90.8862 31.1188 89.0092 29.3565C87.1322 27.5758 86.1937 25.2903 86.1937 22.5C86.1937 19.7097 87.1322 17.4333 89.0092 15.671C90.8862 13.8903 93.2324 13 96.0478 13C99.3138 13 101.829 14.3768 103.593 17.1304L100.778 18.5348C100.309 17.7454 99.6422 17.1029 98.7788 16.6072C97.9342 16.1116 97.0239 15.8638 96.0478 15.8638C94.1896 15.8638 92.6411 16.4879 91.4023 17.7362C90.1823 18.9845 89.5723 20.5725 89.5723 22.5C89.5723 24.4275 90.1823 26.0155 91.4023 27.2638C92.6411 28.5121 94.1896 29.1362 96.0478 29.1362C97.0426 29.1362 97.9623 28.8884 98.807 28.3928C99.6516 27.8971 100.309 27.2546 100.778 26.4652L103.593 27.8696C101.791 30.6232 99.2762 32 96.0478 32Z" fill="white"/>
<path d="M112.283 32C110.181 32 108.491 31.33 107.215 29.9899C105.939 28.6314 105.301 26.97 105.301 25.0058C105.301 23.0415 105.939 21.3894 107.215 20.0493C108.491 18.7092 110.181 18.0391 112.283 18.0391C114.404 18.0391 116.102 18.7092 117.379 20.0493C118.655 21.3894 119.293 23.0415 119.293 25.0058C119.293 26.9884 118.655 28.6498 117.379 29.9899C116.102 31.33 114.404 32 112.283 32ZM112.283 29.4391C113.503 29.4391 114.46 29.0169 115.155 28.1725C115.868 27.3097 116.225 26.2541 116.225 25.0058C116.225 23.7758 115.868 22.7386 115.155 21.8942C114.46 21.0314 113.503 20.6 112.283 20.6C111.082 20.6 110.124 21.0314 109.411 21.8942C108.717 22.7386 108.369 23.7758 108.369 25.0058C108.369 26.2541 108.717 27.3097 109.411 28.1725C110.124 29.0169 111.082 29.4391 112.283 29.4391Z" fill="white"/>
<path d="M134.419 31.6696H131.463V23.3536C131.463 21.5179 130.553 20.6 128.732 20.6C128.019 20.6 127.352 20.7744 126.733 21.1232C126.114 21.472 125.616 21.8942 125.241 22.3899V31.6696H122.285V18.3696H125.241V20.187C125.748 19.5995 126.423 19.0947 127.268 18.6725C128.113 18.2502 129.032 18.0391 130.027 18.0391C131.472 18.0391 132.561 18.4063 133.293 19.1406C134.044 19.8749 134.419 20.9304 134.419 22.3072V31.6696Z" fill="white"/>
<path d="M145.016 31.6696H141.835L136.288 18.3696H139.441L143.411 28.3377L147.381 18.3696H150.562L145.016 31.6696Z" fill="white"/>
<path d="M158.697 32C156.632 32 154.924 31.3575 153.573 30.0725C152.24 28.7691 151.574 27.0802 151.574 25.0058C151.574 23.0599 152.222 21.4169 153.517 20.0768C154.831 18.7184 156.482 18.0391 158.472 18.0391C160.48 18.0391 162.094 18.7184 163.314 20.0768C164.553 21.4353 165.173 23.17 165.173 25.2812V25.9696H154.671C154.784 27.0159 155.225 27.8879 155.994 28.5855C156.764 29.2831 157.768 29.6319 159.007 29.6319C159.701 29.6319 160.396 29.5034 161.09 29.2464C161.804 28.9894 162.395 28.6314 162.864 28.1725L164.215 30.0725C162.845 31.3575 161.006 32 158.697 32ZM162.301 23.9319C162.263 23.014 161.916 22.1971 161.259 21.4812C160.621 20.7652 159.692 20.4072 158.472 20.4072C157.308 20.4072 156.398 20.7652 155.741 21.4812C155.084 22.1787 154.718 22.9957 154.643 23.9319H162.301Z" fill="white"/>
<path d="M180 31.6696H176.678L173.158 26.7681L169.611 31.6696H166.317L171.3 24.8406L166.598 18.3696H169.921L173.158 22.8855L176.368 18.3696H179.69L174.988 24.8406L180 31.6696Z" fill="white"/>
<defs>
<radialGradient id="paint0_radial_6603_2" cx="0" cy="0" r="1" gradientUnits="userSpaceOnUse" gradientTransform="translate(22.5 22.5) rotate(90) scale(22.5)">
<stop stop-color="#7673F5"/>
<stop offset="1" stop-color="#625FF4"/>
</radialGradient>
</defs>
</svg>
