<svg width="24" height="24" viewBox="0 0 24 24" fill="none" xmlns="http://www.w3.org/2000/svg">
<rect width="24" height="24" rx="4" fill="#FF9E2B" fill-opacity="0.16"/>
<path fill-rule="evenodd" clip-rule="evenodd" d="M14.3998 11.4H12.5998V9.6C12.5998 9.2682 12.331 9 11.9998 9C11.6686 9 11.3998 9.2682 11.3998 9.6V12C11.3998 12.3318 11.6686 12.6 11.9998 12.6H14.3998C14.7316 12.6 14.9998 12.3318 14.9998 12C14.9998 11.6682 14.7316 11.4 14.3998 11.4ZM11.9995 16.7999C9.3529 16.7999 7.1995 14.6465 7.1995 11.9999C7.1995 9.35332 9.3529 7.19992 11.9995 7.19992C14.6461 7.19992 16.7995 9.35332 16.7995 11.9999C16.7995 14.6465 14.6461 16.7999 11.9995 16.7999ZM12 6C8.6916 6 6 8.6916 6 12C6 15.3084 8.6916 18 12 18C15.3084 18 18 15.3084 18 12C18 8.6916 15.3084 6 12 6Z" fill="#FF9E2B"/>
</svg>
